<svg id="Layer_1" enable-background="new 0 0 512 512" height="512" viewBox="0 0 512 512" width="512" xmlns="http://www.w3.org/2000/svg"><path fill="#ffffff" d="m502.76 436.828c-1-3.734-4.839-5.947-8.573-4.95l-140.33 37.602c-3.658-5.403-9.713-9.035-16.621-9.418l-51.17-184.862c-.466-1.683-1.543-3.131-3.022-4.06l-46.747-29.372c-3.274-2.059-7.594-1.069-9.651 2.203s-1.071 7.594 2.203 9.65l44.449 27.929 50.468 182.325c-5.568 3.889-9.224 10.334-9.224 17.625 0 2.641.502 5.161 1.376 7.5h-292.918v-466h287.009v71.049c0 3.866 3.134 7 7 7h71.049v157.59l-84.259 22.578c-3.734 1.001-5.95 4.839-4.95 8.573l16.569 61.837c.838 3.128 3.666 5.19 6.757 5.19.6 0 1.209-.078 1.816-.24l89.448-23.967c1.793-.48 3.322-1.654 4.25-3.262s1.18-3.519.699-5.312l-16.331-60.947v-169.04c0-1.856-.737-3.637-2.05-4.95l-78.049-78.049c-1.312-1.312-3.093-2.05-4.95-2.05h-301.008c-3.866 0-7 3.134-7 7v480c0 3.866 3.134 7 7 7h379.058c3.866 0 7-3.134 7-7v-24.941l95.753-25.657c3.734-1.002 5.95-4.84 4.949-8.574zm-178.752-403.929 54.15 54.149h-54.15zm33.124 256.455-6.007 1.609-1.984-7.402 6.007-1.609zm-30.003 51.888-12.946-48.314 21.436-5.744 3.795 14.164c.838 3.128 3.666 5.19 6.757 5.19.6 0 1.209-.078 1.816-.24l19.529-5.232c3.734-1.001 5.95-4.839 4.95-8.573l-3.795-14.164 21.437-5.744 12.946 48.315zm1.413 140.258c0-4.135 3.364-7.499 7.5-7.499s7.5 3.364 7.5 7.499c0 4.136-3.364 7.5-7.5 7.5s-7.5-3.364-7.5-7.5zm59.516 7.5h-31.893c.706-1.889 1.154-3.897 1.3-5.993l30.593-8.198zm-67.285-117.386 23.139 86.354c.838 3.128 3.666 5.19 6.757 5.19.6 0 1.209-.078 1.816-.24l124.913-33.47c1.793-.48 3.322-1.654 4.25-3.262s1.18-3.519.699-5.312l-23.139-86.355c-.48-1.793-1.653-3.322-3.261-4.251-1.608-.928-3.519-1.179-5.312-.699l-124.913 33.471c-3.733 1.002-5.949 4.84-4.949 8.574zm78.694 4.806-6.007 1.609-4.661-17.396 6.007-1.609zm-24.19-12.163 6.473 24.157c.838 3.128 3.666 5.19 6.757 5.19.6 0 1.209-.078 1.816-.24l19.53-5.232c1.793-.48 3.322-1.654 4.25-3.262s1.18-3.519.699-5.312l-6.473-24.158 39.169-10.495 19.515 72.833-111.39 29.846-19.515-72.832zm-267.88-261.287c0-3.866-3.134-7-7-7h-40.287c-3.866 0-7 3.134-7 7v40.287c0 3.866 3.134 7 7 7h40.287c3.866 0 7-3.134 7-7zm-14 33.287h-26.287v-26.287h26.287zm14 55.304c0-3.866-3.134-7-7-7h-40.287c-3.866 0-7 3.134-7 7v40.287c0 3.866 3.134 7 7 7h40.287c3.866 0 7-3.134 7-7zm-14 33.287h-26.287v-26.287h26.287zm14 55.304c0-3.866-3.134-7-7-7h-40.287c-3.866 0-7 3.134-7 7v40.287c0 3.866 3.134 7 7 7h40.287c3.866 0 7-3.134 7-7zm-14 33.287h-26.287v-26.287h26.287zm257.55-94.734h-226.935c-3.866 0-7-3.134-7-7s3.134-7 7-7h226.935c3.866 0 7 3.134 7 7s-3.134 7-7 7zm-233.935-92.545c0-3.866 3.134-7 7-7h226.935c3.866 0 7 3.134 7 7s-3.134 7-7 7h-226.935c-3.866 0-7-3.134-7-7zm140.931 174.136c0 3.866-3.134 7-7 7h-126.931c-3.866 0-7-3.134-7-7s3.134-7 7-7h126.931c3.867 0 7 3.134 7 7zm0 88.592c0 3.866-3.134 7-7 7h-126.931c-3.866 0-7-3.134-7-7s3.134-7 7-7h126.931c3.867 0 7 3.133 7 7zm-157.546-27.145h-40.287c-3.866 0-7 3.134-7 7v40.287c0 3.866 3.134 7 7 7h40.287c3.866 0 7-3.134 7-7v-40.287c0-3.866-3.134-7-7-7zm-7 40.287h-26.287v-26.287h26.287z"/></svg>